<svg id="Ebene_2" data-name="Ebene 2" xmlns="http://www.w3.org/2000/svg" xmlns:xlink="http://www.w3.org/1999/xlink" width="160.866" height="77.936" viewBox="0 0 160.866 77.936">
  <defs>
    <clipPath id="clip-path">
      <rect id="Rectangle_6180" data-name="Rectangle 6180" width="160.866" height="77.936" fill="none"/>
    </clipPath>
  </defs>
  <g id="Ebene_1" data-name="Ebene 1">
    <path id="Path_38488" data-name="Path 38488" d="M126.683,84.652c-.063,2.138,1.671,3.411,4.073,3.411,2.119,0,4.168-.952,4.168-3.1,0-1.173-.631-2.018-2.2-2.459a3.291,3.291,0,0,0,2.245-3.247,3.556,3.556,0,0,0-1.028-2.585l.9-1.059-.933-.75-.864,1.047a4.212,4.212,0,0,0-2.257-.631,3.975,3.975,0,0,0-4.218,3.954c0,2.522,1.728,3.935,4.218,3.935,1.488,0,2.793.492,2.793,1.784s-1.444,1.892-2.812,1.892-2.825-.631-2.825-2.2Zm1.2-5.4a2.9,2.9,0,0,1,5.795,0,2.749,2.749,0,0,1-2.875,2.768,2.711,2.711,0,0,1-2.919-2.787m17.283,2.982-.9-.8a3.462,3.462,0,0,1-2.522,1,2.737,2.737,0,0,1-2.926-2.472H145.6c.309-3.184-1.539-4.628-3.985-4.628a4.174,4.174,0,0,0,.063,8.348,4.578,4.578,0,0,0,3.449-1.431Zm-6.305-3.4a2.674,2.674,0,0,1,2.825-2.333,2.37,2.37,0,0,1,2.692,2.333Zm10.927-3.348h-1.261v8h1.324V79.053a2.283,2.283,0,0,1,2.339-2.383,2.138,2.138,0,0,1,1.381.429l.631-1.122a2.989,2.989,0,0,0-1.892-.631,2.61,2.61,0,0,0-2.447,1.318l-.088-1.2h0Zm6.753,0v8h1.318V78.946a2.226,2.226,0,0,1,2.169-2.383,2.157,2.157,0,0,1,2.125,2.339v4.565h1.324V78.9a2.2,2.2,0,0,1,2.182-2.339,2.077,2.077,0,0,1,2.062,2.308v4.6h1.368v-4.6c0-2.2-1.261-3.55-3.367-3.55a2.97,2.97,0,0,0-2.812,1.734,2.655,2.655,0,0,0-2.68-1.734,2.579,2.579,0,0,0-2.352,1.349l-.076-1.179H156.54Zm23.772,8V75.491h-1.293v1.457a3.153,3.153,0,0,0-2.951-1.627,3.909,3.909,0,0,0-4.111,4.168,3.96,3.96,0,0,0,4.067,4.181,3.4,3.4,0,0,0,2.938-1.614v1.412ZM176.1,76.581c3.859,0,3.846,5.87,0,5.87a2.806,2.806,0,0,1-2.863-2.919,2.762,2.762,0,0,1,2.863-2.951m7.888,6.886h1.305V79.192a2.465,2.465,0,0,1,2.4-2.642c1.532,0,2.3.908,2.3,2.522v4.414h1.324V79.072c0-2.409-1.381-3.733-3.38-3.733a3.014,3.014,0,0,0-2.68,1.431l-.076-1.261h-1.2Zm17.586-7.976H200.13l-1.766,4.168-.845,2.257-.876-2.276-1.57-4.149h-1.507l3.216,7.869-1.665,3.878h1.431l5.044-11.747Z" transform="translate(-46.761 -27.657)" fill="#fff"/>
    <g id="Group_4604" data-name="Group 4604" clip-path="url(#clip-path)">
      <path id="Path_38491" data-name="Path 38491" d="M0,0H77.122" transform="translate(0 55.614)" fill="none" stroke="#fff" stroke-width="1.49"/>
    </g>
    <path id="Path_38489" data-name="Path 38489" d="M.883,107.517H0v7.567H1.16v-5.347l4.08,5.347h.87v-7.567H4.962V112.9Zm8.891,2.131a2.6,2.6,0,0,0-2.6,2.781,2.623,2.623,0,1,0,5.234,0,2.629,2.629,0,0,0-2.629-2.781m0,1.028a1.633,1.633,0,0,1,1.576,1.753,1.57,1.57,0,1,1-3.115,0,1.614,1.614,0,0,1,1.551-1.753m3.191,3.783a.653.653,0,1,0,.653-.653.653.653,0,0,0-.653.653m3.235.631H19.9v-.984H18.639v-6.589l-2.371.788v1.059L17.5,109v5.107H16.237v1.009Zm7.264-7.567v7.567h.675v-2.875a1.721,1.721,0,0,1,1.7-1.854c1.021,0,1.507.631,1.507,1.734v3h.687v-3c0-1.431-.7-2.428-2.112-2.428a1.955,1.955,0,0,0-1.772,1.009v-3.153Zm10.618,5.215c.2-2.1-1.021-3.1-2.522-3.064a2.766,2.766,0,1,0,2.207,4.534l-.46-.435a2.251,2.251,0,0,1-1.715.738,1.841,1.841,0,0,1-1.967-1.778Zm-4.414-.631a1.841,1.841,0,0,1,1.892-1.8,1.753,1.753,0,0,1,1.892,1.8ZM39.4,110.8a2.238,2.238,0,0,0-2.011-1.135,2.768,2.768,0,0,0,0,5.53,2.327,2.327,0,0,0,2.037-1.173v1.066h.631v-5.347h-.631V110.8Zm-2.011-.473c2.623,0,2.623,4.187,0,4.187a2.1,2.1,0,0,1,0-4.187m3.979,4.761h.687v-7.567H41.37Zm2.566-6.848v1.545H42.877v.631h1.034v2.982c0,1.116.429,1.784,1.532,1.778a2.207,2.207,0,0,0,.977-.265l-.221-.631a1.74,1.74,0,0,1-.738.208c-.687,0-.864-.435-.864-1.116v-2.983h1.646v-.631H44.624v-1.621l-.687.076Zm3.2-.725v7.567h.687v-2.863a1.721,1.721,0,0,1,1.677-1.848c1.021,0,1.507.631,1.507,1.734v3h.694v-3c0-1.431-.7-2.428-2.112-2.428a1.955,1.955,0,0,0-1.772,1.009v-3.153Zm12.327,6.381a1.929,1.929,0,0,1-1.406.631,2.081,2.081,0,0,1,0-4.155,1.822,1.822,0,0,1,1.337.574l.454-.46a2.346,2.346,0,0,0-1.791-.788,2.768,2.768,0,1,0,1.892,4.717l-.473-.486Zm5.442-3.1a2.251,2.251,0,0,0-2.011-1.135,2.768,2.768,0,0,0,0,5.53,2.327,2.327,0,0,0,2.037-1.173v1.066h.631v-5.347h-.631V110.8Zm-1.993-.473c2.623,0,2.623,4.187,0,4.187a2.1,2.1,0,0,1,0-4.187m3.941-.586v5.347h.687v-3.039a1.6,1.6,0,0,1,1.57-1.69,1.5,1.5,0,0,1,.876.284l.315-.631a1.747,1.747,0,0,0-1.148-.378,1.665,1.665,0,0,0-1.614.958l-.038-.876Zm8.7,2.989c.2-2.1-1.015-3.1-2.522-3.064a2.766,2.766,0,1,0,2.207,4.534l-.46-.435a2.232,2.232,0,0,1-1.715.738,1.841,1.841,0,0,1-1.923-1.772Zm-4.414-.631a1.841,1.841,0,0,1,1.892-1.8,1.753,1.753,0,0,1,1.892,1.8Zm10.827-1.772a2.081,2.081,0,1,1-1.966,2.078,2.087,2.087,0,0,1,1.966-2.078m-2.642-2.863v7.6h.631L80,114.043a2.1,2.1,0,0,0,1.993,1.129,2.773,2.773,0,0,0,0-5.53A2.138,2.138,0,0,0,80,110.789v-3.3Zm6.261,2.257v5.347h.694v-3.039a1.6,1.6,0,0,1,1.57-1.69,1.482,1.482,0,0,1,.87.284l.322-.631a1.765,1.765,0,0,0-1.154-.378,1.658,1.658,0,0,0-1.608.958l-.044-.876Zm8.2,1.059a2.251,2.251,0,0,0-2.011-1.135,2.768,2.768,0,0,0,0,5.53A2.333,2.333,0,0,0,93.813,114v1.066h.631v-5.347h-.631v1.059ZM91.8,110.3c2.617,0,2.617,4.187,0,4.187a2.1,2.1,0,0,1,0-4.187m8.645,4.761v-3.008a2.213,2.213,0,0,0-1.356-2.27,2.169,2.169,0,0,0-2.674.832v-.9H95.78v5.347h.687v-2.913a1.715,1.715,0,0,1,1.583-1.829,1.541,1.541,0,0,1,1.652,1.753v3Zm3.55-4.742A2.087,2.087,0,1,1,102.1,112.4a2.081,2.081,0,0,1,1.889-2.078m1.955-2.819v3.285a2.138,2.138,0,0,0-2.03-1.1,2.773,2.773,0,0,0,0,5.53,2.194,2.194,0,0,0,1.993-1.173v1.066h.668v-7.567Zm4.8,7.567h.694V109.7h-.694Zm-.132-7.018a.492.492,0,1,0,.227-.472.492.492,0,0,0-.227.472m6.829,7.018v-3.008a2.2,2.2,0,0,0-1.356-2.27,2.163,2.163,0,0,0-2.667.832v-.9h-.631v5.347h.687v-2.913a1.715,1.715,0,0,1,1.665-1.835,1.545,1.545,0,0,1,1.658,1.753v3Zm9.414-.719h-4.414v-2.705H126.6v-.694h-4.149v-2.718h4.294v-.713H121.7v7.567h5.158v-.719Zm.82-4.628v3.008a2.175,2.175,0,0,0,2.182,2.447,2.068,2.068,0,0,0,1.8-1.009v.9h.631v-5.347H131.6v2.913a1.7,1.7,0,0,1-1.665,1.822,1.521,1.521,0,0,1-1.6-1.74v-3Zm5.946,0v5.347h.681v-3.039a1.6,1.6,0,0,1,1.57-1.69,1.5,1.5,0,0,1,.876.284l.315-.631a1.759,1.759,0,0,0-1.148-.378,1.665,1.665,0,0,0-1.614.958l-.044-.876Zm6.179-.076a2.768,2.768,0,1,0,2.6,2.781,2.585,2.585,0,0,0-2.6-2.781m0,.662a1.948,1.948,0,0,1,1.892,2.119,1.924,1.924,0,1,1-1.948-2.119m6.261,4.162a2.075,2.075,0,0,1,0-4.13A1.854,1.854,0,0,1,147.9,112.4a1.892,1.892,0,0,1-1.892,2.075m-1.961,3.153v-3.632a2.188,2.188,0,0,0,1.993,1.192,2.766,2.766,0,0,0,.044-5.53,2.238,2.238,0,0,0-2.049,1.211V109.73h-.649v7.907Zm10.4-4.906c.2-2.1-1.015-3.1-2.522-3.064a2.766,2.766,0,1,0,2.207,4.534l-.46-.435a2.251,2.251,0,0,1-1.715.738,1.841,1.841,0,0,1-1.923-1.772Zm-4.414-.631a1.835,1.835,0,0,1,1.892-1.8,1.759,1.759,0,0,1,1.892,1.8Z" transform="translate(0 -39.701)" fill="#fff"/>
    <path id="Path_38490" data-name="Path 38490" d="M22.883,31.874a9.061,9.061,0,0,1-9.074,3.38,8.878,8.878,0,0,1-6.432-7.125A8.765,8.765,0,0,1,11.35,19.3a8.828,8.828,0,0,1,9.269.189,8.859,8.859,0,0,1,2.264,12.371M27.8,36.906a16.086,16.086,0,0,0,3.027-14.622c-1.74-5.725-6.867-10.4-12.857-11.035A14.683,14.683,0,0,0,7.188,14.061V0H0V25.689a17.038,17.038,0,0,0,1.892,8.437,15.839,15.839,0,0,0,15.133,8.254A16.394,16.394,0,0,0,27.8,36.938m29.97-12.611H40.866a8.3,8.3,0,0,1,8.525-6.734c4.54,0,7.636,2.44,8.38,6.734m6.684,5.637a24.793,24.793,0,0,0,.3-3.342c0-9.029-6.305-15.568-15.366-15.568S33.728,17.611,33.728,26.742,40.513,42.4,49.94,42.4a18.115,18.115,0,0,0,12.769-4.691l-3.991-4.887a13.172,13.172,0,0,1-8.777,2.945c-4.414,0-7.63-2.194-8.828-5.788Zm30.582-.75V12.17h-7.39V28.885c0,4.092-2.44,6.387-6.432,6.387s-6.432-2.3-6.432-6.387V12.17H67.4V29.232c0,7.983,5.99,13.122,13.822,13.122S95.036,37.2,95.036,29.232M112.5,18.456V11.35c-7.831,0-13.815,5.139-13.815,13.122V41.553h7.384V24.844c0-4.092,2.447-6.387,6.432-6.387m24.856,5.889H120.435a8.3,8.3,0,0,1,8.525-6.734c4.54,0,7.63,2.44,8.38,6.734m6.684,5.637a24.793,24.793,0,0,0,.3-3.342c0-9.029-6.305-15.568-15.366-15.568s-15.65,6.488-15.65,15.669S120.094,42.4,129.527,42.4A18.115,18.115,0,0,0,142.3,37.713L138.3,32.826a13.172,13.172,0,0,1-8.777,2.945c-4.414,0-7.63-2.194-8.828-5.788Zm16.823-11.526V11.35c-7.831,0-13.822,5.139-13.822,13.122V41.553h7.384V24.844c0-4.092,2.447-6.387,6.438-6.387" fill="#fff"/>
  </g>
</svg>
