<svg id="Group_15386" data-name="Group 15386" xmlns="http://www.w3.org/2000/svg" xmlns:xlink="http://www.w3.org/1999/xlink" width="1920" height="108" viewBox="0 0 1920 108">
  <defs>
    <clipPath id="clip-path">
      <rect id="Rectangle_1" data-name="Rectangle 1" width="181.003" height="50" fill="none"/>
    </clipPath>
  </defs>
  <path id="Path_38523" data-name="Path 38523" d="M0,0H1920V83H0Z" transform="translate(0 25)" fill="#fff"/>
  <rect id="Rectangle_6312" data-name="Rectangle 6312" width="1920" height="3" transform="translate(0 105)" fill="#e6e6e6" style="mix-blend-mode: multiply;isolation: isolate"/>
  <path id="Path_38522" data-name="Path 38522" d="M0,0H1920V30H0Z" fill="#009289"/>
  <text id="Εταιρία_Νέα_Επικοινωνία_Κατηγορίες" data-name="Εταιρία            Νέα            Επικοινωνία           Κατηγορίες" transform="translate(960 22)" fill="#fff" font-size="12" font-family="Manrope" font-weight="600"><tspan x="-144" y="0" xml:space="preserve">Εταιρία            Νέα            Επικοινωνία           Κατηγορίες</tspan></text>
  <text id="Χρειάζεστε_βοήθεια_Καλέστε_μας:_210_269_3600" data-name="Χρειάζεστε βοήθεια?  Καλέστε μας: 210 269 3600" transform="translate(1880.223 22)" fill="#fff" font-size="12" font-family="Manrope" font-weight="500"><tspan x="-276" y="0" xml:space="preserve">Χρειάζεστε βοήθεια?  Καλέστε μας: 210 269 3600</tspan></text>
  <path id="Path_38524" data-name="Path 38524" d="M13.573,13.139,10.953,11a1.326,1.326,0,0,0-1.711.08L8.222,12.1a.517.517,0,0,1-.577.06l-.119-.066-.351-.219a8.548,8.548,0,0,1-1.16-.935,7.641,7.641,0,0,1-.955-1.154,4.047,4.047,0,0,1-.219-.358c-.04-.06-.06-.1-.086-.146a.511.511,0,0,1,.073-.551L5.848,7.705a1.327,1.327,0,0,0,.119-1.738L3.792,3.347a1.127,1.127,0,0,0-1.678-.086L.5,4.879c-1.439,1.413.451,6.057,2.971,8.578s7.141,4.412,8.58,2.972l1.611-1.612a1.115,1.115,0,0,0-.086-1.678Zm-.59,1-1.618,1.619c-.9.9-5.039-.8-7.214-2.972S.271,6.465,1.18,5.556L2.791,3.944a.166.166,0,0,1,.259,0L5.185,6.578a.332.332,0,0,1,0,.425L4.15,8.024a1.447,1.447,0,0,0-.232,1.7,4.578,4.578,0,0,0,.345.571,8.729,8.729,0,0,0,1.074,1.327A9.284,9.284,0,0,0,6.663,12.7c.252.166.444.279.57.345a1.465,1.465,0,0,0,1.7-.232l1.014-1.055a.331.331,0,0,1,.424,0L12.982,13.9a.153.153,0,0,1,0,.232Z" transform="translate(1888.502 8.072)" fill="#fff" fill-rule="evenodd"/>
  <text id="Προϊόντα" transform="translate(310 60)" fill="#161615" font-size="16" font-family="Manrope" letter-spacing="0.05em"><tspan x="0" y="17">Προϊόντα</tspan></text>
  <text id="ψάχνω_για_" data-name="ψάχνω για …" transform="translate(965 60)" fill="#bdbdbd" font-size="16" font-family="Manrope" letter-spacing="0.05em"><tspan x="0" y="17">ψάχνω για …</tspan></text>
  <g id="main_logo" data-name="main logo" transform="translate(20 40)">
    <g id="Group_1" data-name="Group 1" clip-path="url(#clip-path)">
      <path id="Path_1" data-name="Path 1" d="M191.423,46.429a10.6,10.6,0,0,1,1.344.11,7.745,7.745,0,0,1,1.6.4,4.384,4.384,0,0,1,1.332.752,1.508,1.508,0,0,1,.554,1.209,1.978,1.978,0,0,1-.443,1.27,1.466,1.466,0,0,1-1.209.556,2.4,2.4,0,0,1-.728-.112c-.239-.074-.485-.159-.741-.259a7.519,7.519,0,0,0-.814-.259,4.079,4.079,0,0,0-1-.109,2.493,2.493,0,0,0-1.406.405,1.343,1.343,0,0,0-.616,1.2,1.079,1.079,0,0,0,.6.986,7.489,7.489,0,0,0,1.529.63q.924.284,1.986.605a7.929,7.929,0,0,1,1.985.911,4.911,4.911,0,0,1,1.53,1.568,4.833,4.833,0,0,1,.6,2.576,5.487,5.487,0,0,1-.505,2.393,5.4,5.4,0,0,1-1.369,1.8,6.132,6.132,0,0,1-2.01,1.135,7.438,7.438,0,0,1-2.429.394,16.814,16.814,0,0,1-1.74-.11,10.414,10.414,0,0,1-1.973-.408,4.779,4.779,0,0,1-1.616-.837,1.732,1.732,0,0,1-.666-1.407,1.825,1.825,0,0,1,.444-1.233,1.5,1.5,0,0,1,1.208-.518,3.042,3.042,0,0,1,.913.147q.469.149.986.332c.346.125.708.235,1.086.335a4.606,4.606,0,0,0,1.159.147,2.633,2.633,0,0,0,1.888-.6,2.016,2.016,0,0,0,.629-1.517,1.276,1.276,0,0,0-.605-1.135,6.093,6.093,0,0,0-1.529-.678q-.926-.283-1.986-.58a8.953,8.953,0,0,1-1.986-.815,4.55,4.55,0,0,1-1.529-1.38,3.923,3.923,0,0,1-.6-2.3,5.372,5.372,0,0,1,.494-2.344,5.222,5.222,0,0,1,1.332-1.751,6.143,6.143,0,0,1,1.949-1.109,6.912,6.912,0,0,1,2.343-.4" transform="translate(-124.71 -31.259)" fill="#161615"/>
      <path id="Path_2" data-name="Path 2" d="M224.061,62.915a3.069,3.069,0,0,1-.123-.42,2.276,2.276,0,0,1-.049-.493,1.183,1.183,0,0,1,.159-.616,1.88,1.88,0,0,1,.407-.481,1.846,1.846,0,0,1,.543-.322,1.619,1.619,0,0,1,.568-.11,1.816,1.816,0,0,1,1.1.332,1.972,1.972,0,0,1,.678.926l2.443,6.686,2.615-6.686a1.973,1.973,0,0,1,.678-.926,1.814,1.814,0,0,1,1.1-.332,1.626,1.626,0,0,1,.568.11,1.839,1.839,0,0,1,.542.322,1.89,1.89,0,0,1,.408.481,1.189,1.189,0,0,1,.159.616,2.045,2.045,0,0,1-.173.913l-5.945,14.8a2.933,2.933,0,0,1-.629.988,1.4,1.4,0,0,1-1.048.418,1.838,1.838,0,0,1-1.381-.481,1.473,1.473,0,0,1-.469-1.048,2.258,2.258,0,0,1,.061-.53,3.534,3.534,0,0,1,.161-.505l1.554-3.849Z" transform="translate(-150.737 -40.715)" fill="#161615"/>
      <path id="Path_3" data-name="Path 3" d="M263.146,62.139a2.049,2.049,0,0,1,.493-1.431,1.659,1.659,0,0,1,1.283-.542,1.7,1.7,0,0,1,1.11.344,1.508,1.508,0,0,1,.519.963,3.287,3.287,0,0,1,1.344-1.085,5.106,5.106,0,0,1,2.084-.371,5.73,5.73,0,0,1,1.936.322,4.25,4.25,0,0,1,1.542.937,4.4,4.4,0,0,1,1.011,1.5,5.21,5.21,0,0,1,.371,2.022v6.809a2.042,2.042,0,0,1-.493,1.431,1.786,1.786,0,0,1-2.566,0,2.045,2.045,0,0,1-.493-1.431V65.421a2.329,2.329,0,0,0-.679-1.851,2.4,2.4,0,0,0-1.64-.592,2.064,2.064,0,0,0-1.69.7,2.643,2.643,0,0,0-.58,1.74v6.191a2.045,2.045,0,0,1-.493,1.431,1.787,1.787,0,0,1-2.566,0,2.044,2.044,0,0,1-.493-1.431Z" transform="translate(-177.168 -40.408)" fill="#161615"/>
      <path id="Path_4" data-name="Path 4" d="M312.342,55.289h0a4.774,4.774,0,0,0-.173-1.27,3.626,3.626,0,0,0-.518-1.123,2.769,2.769,0,0,0-.864-.8,2.376,2.376,0,0,0-1.234-.308,2.191,2.191,0,0,0-1.209.332,2.933,2.933,0,0,0-.863.852,3.877,3.877,0,0,0-.518,1.16,4.919,4.919,0,0,0-.172,1.282,4.82,4.82,0,0,0,.172,1.258,3.9,3.9,0,0,0,.518,1.16,2.8,2.8,0,0,0,.863.839,2.249,2.249,0,0,0,1.209.321,2.273,2.273,0,0,0,1.258-.334,2.87,2.87,0,0,0,.864-.863,3.8,3.8,0,0,0,.505-1.2,5.615,5.615,0,0,0,.161-1.309m3.552,4.835a2.039,2.039,0,0,1-.493,1.431,1.653,1.653,0,0,1-1.283.544,1.687,1.687,0,0,1-1.776-1.482,3.046,3.046,0,0,1-1.419,1.223,4.536,4.536,0,0,1-1.838.406,5.143,5.143,0,0,1-2.417-.567,5.8,5.8,0,0,1-1.851-1.517,6.979,6.979,0,0,1-1.171-2.146,7.572,7.572,0,0,1-.407-2.456A9.334,9.334,0,0,1,303.6,53a7.058,7.058,0,0,1,1.074-2.244,5.67,5.67,0,0,1,1.789-1.6,4.934,4.934,0,0,1,2.5-.618,5.068,5.068,0,0,1,3.38,1.234V44.927a2.044,2.044,0,0,1,.493-1.431,1.788,1.788,0,0,1,2.565,0,2.046,2.046,0,0,1,.493,1.431Z" transform="translate(-204.161 -28.92)" fill="#161615"/>
      <path id="Path_5" data-name="Path 5" d="M354.722,65.692h0a3.374,3.374,0,0,0-.863-1.948,2.848,2.848,0,0,0-3.91.024,3.208,3.208,0,0,0-.875,1.924Zm-5.574,2.368a2.647,2.647,0,0,0,1.147,1.949,3.961,3.961,0,0,0,2.208.616,3.515,3.515,0,0,0,1.271-.223,8.338,8.338,0,0,0,1.072-.493q.494-.271.913-.494a1.681,1.681,0,0,1,.765-.222,1.349,1.349,0,0,1,1.012.481,1.525,1.525,0,0,1,.443,1.049,1.6,1.6,0,0,1-.53,1.109,5.02,5.02,0,0,1-1.369.962,9.223,9.223,0,0,1-1.863.679,8.239,8.239,0,0,1-2.035.259,6.9,6.9,0,0,1-2.726-.518,6.244,6.244,0,0,1-2.1-1.431A6.43,6.43,0,0,1,346,69.626a7.5,7.5,0,0,1-.48-2.726,7.335,7.335,0,0,1,.468-2.6,6.992,6.992,0,0,1,1.307-2.2,6.325,6.325,0,0,1,2.01-1.516,5.842,5.842,0,0,1,2.578-.569,5.742,5.742,0,0,1,2.627.593,6.753,6.753,0,0,1,2.01,1.529,7.012,7.012,0,0,1,1.3,2.085,6.083,6.083,0,0,1,.456,2.257,1.676,1.676,0,0,1-.37,1.185,1.557,1.557,0,0,1-1.184.395Z" transform="translate(-232.629 -40.408)" fill="#161615"/>
      <path id="Path_6" data-name="Path 6" d="M395.458,62.584a1.658,1.658,0,0,1-.407,1.1,1.313,1.313,0,0,1-1.049.481,1.63,1.63,0,0,1-.617-.161c-.246-.107-.51-.225-.789-.359a9.147,9.147,0,0,0-.876-.356,2.7,2.7,0,0,0-.9-.161,1.521,1.521,0,0,0-.851.234.834.834,0,0,0-.358.752.822.822,0,0,0,.457.7,7.169,7.169,0,0,0,1.147.556l1.481.579a7.581,7.581,0,0,1,1.479.776,4.24,4.24,0,0,1,1.147,1.148,2.963,2.963,0,0,1,.457,1.69,3.843,3.843,0,0,1-.358,1.653,3.8,3.8,0,0,1-1.023,1.319,5,5,0,0,1-1.592.877,6.337,6.337,0,0,1-2.084.321,7.286,7.286,0,0,1-1.616-.2,7.066,7.066,0,0,1-1.616-.566,4.525,4.525,0,0,1-1.233-.877,1.542,1.542,0,0,1-.493-1.1,1.405,1.405,0,0,1,.1-.469,1.834,1.834,0,0,1,.3-.518,1.854,1.854,0,0,1,.481-.42,1.23,1.23,0,0,1,.655-.173,2.224,2.224,0,0,1,.924.185,8.7,8.7,0,0,1,.8.42,6.138,6.138,0,0,0,.863.42,2.96,2.96,0,0,0,1.086.184,1.737,1.737,0,0,0,1.11-.259.945.945,0,0,0,.3-.752.811.811,0,0,0-.457-.679,7.235,7.235,0,0,0-1.146-.554L389.29,67.8a7.413,7.413,0,0,1-1.48-.779,4.136,4.136,0,0,1-1.147-1.157,3.02,3.02,0,0,1-.456-1.7,3.875,3.875,0,0,1,.357-1.69,3.956,3.956,0,0,1,1-1.309,4.478,4.478,0,0,1,1.517-.85,6.012,6.012,0,0,1,1.936-.3,7.217,7.217,0,0,1,1.444.161,6.518,6.518,0,0,1,1.443.469,3.514,3.514,0,0,1,1.11.789,1.639,1.639,0,0,1,.444,1.148" transform="translate(-259.722 -40.408)" fill="#161615"/>
      <path id="Path_7" data-name="Path 7" d="M419.964,62.139a2.049,2.049,0,0,1,.493-1.431,1.658,1.658,0,0,1,1.283-.542,1.448,1.448,0,0,1,1.628,1.331,4.268,4.268,0,0,1,3.305-1.48,4.492,4.492,0,0,1,3.676,1.8,5.041,5.041,0,0,1,1.788-1.333,4.853,4.853,0,0,1,1.962-.469,5.954,5.954,0,0,1,1.973.31,4.062,4.062,0,0,1,2.529,2.405,5.531,5.531,0,0,1,.357,2.071v6.809a2.042,2.042,0,0,1-.493,1.431,1.786,1.786,0,0,1-2.566,0,2.039,2.039,0,0,1-.494-1.431V65.421a2.694,2.694,0,0,0-.554-1.778,1.874,1.874,0,0,0-1.518-.665,1.9,1.9,0,0,0-1.541.665,2.684,2.684,0,0,0-.555,1.778v6.191a2.041,2.041,0,0,1-.494,1.431,1.785,1.785,0,0,1-2.565,0,2.04,2.04,0,0,1-.494-1.431V65.421a2.692,2.692,0,0,0-.554-1.778,2.163,2.163,0,0,0-3.121,0,2.922,2.922,0,0,0-.494,1.778v6.191a2.045,2.045,0,0,1-.493,1.431,1.787,1.787,0,0,1-2.566,0,2.043,2.043,0,0,1-.493-1.431Z" transform="translate(-282.749 -40.408)" fill="#161615"/>
      <path id="Path_8" data-name="Path 8" d="M488.77,63.275h0a2.344,2.344,0,0,0-1.271.332,2.879,2.879,0,0,0-.876.852,3.672,3.672,0,0,0-.505,1.16,5.224,5.224,0,0,0-.16,1.282,4.9,4.9,0,0,0,.172,1.282,3.722,3.722,0,0,0,.518,1.148,2.793,2.793,0,0,0,.877.826,2.575,2.575,0,0,0,2.491,0,2.8,2.8,0,0,0,.876-.826,3.709,3.709,0,0,0,.519-1.148,4.926,4.926,0,0,0,.173-1.282,5.287,5.287,0,0,0-.16-1.282,3.692,3.692,0,0,0-.505-1.16,2.887,2.887,0,0,0-.876-.852,2.34,2.34,0,0,0-1.27-.332m0-3.258a5.835,5.835,0,0,1,2.577.569,6.323,6.323,0,0,1,2.011,1.516,7.015,7.015,0,0,1,1.308,2.2,7.333,7.333,0,0,1,.469,2.6,7.57,7.57,0,0,1-.457,2.628,6.682,6.682,0,0,1-1.3,2.183,6.211,6.211,0,0,1-9.226,0,6.666,6.666,0,0,1-1.3-2.183,7.564,7.564,0,0,1-.456-2.628,7.333,7.333,0,0,1,.469-2.6,6.99,6.99,0,0,1,1.307-2.2,6.32,6.32,0,0,1,2.011-1.516,5.837,5.837,0,0,1,2.578-.569" transform="translate(-324.788 -40.408)" fill="#161615"/>
      <path id="Path_9" data-name="Path 9" d="M533.022,62.584a1.658,1.658,0,0,1-.407,1.1,1.312,1.312,0,0,1-1.049.481,1.633,1.633,0,0,1-.617-.161c-.247-.107-.51-.225-.789-.359a9.217,9.217,0,0,0-.876-.356,2.7,2.7,0,0,0-.9-.161,1.521,1.521,0,0,0-.851.234.834.834,0,0,0-.358.752.821.821,0,0,0,.457.7,7.177,7.177,0,0,0,1.146.556l1.481.579a7.6,7.6,0,0,1,1.48.776,4.236,4.236,0,0,1,1.146,1.148,2.963,2.963,0,0,1,.457,1.69,3.852,3.852,0,0,1-.357,1.653,3.8,3.8,0,0,1-1.024,1.319,4.994,4.994,0,0,1-1.592.877,6.338,6.338,0,0,1-2.084.321,7.288,7.288,0,0,1-1.615-.2,7.062,7.062,0,0,1-1.616-.566,4.511,4.511,0,0,1-1.233-.877,1.54,1.54,0,0,1-.494-1.1,1.413,1.413,0,0,1,.1-.469,1.846,1.846,0,0,1,.776-.937,1.231,1.231,0,0,1,.654-.173,2.226,2.226,0,0,1,.925.185,8.73,8.73,0,0,1,.8.42,6.175,6.175,0,0,0,.863.42,2.96,2.96,0,0,0,1.086.184,1.736,1.736,0,0,0,1.11-.259.945.945,0,0,0,.3-.752.811.811,0,0,0-.456-.679,7.244,7.244,0,0,0-1.147-.554l-1.481-.579a7.4,7.4,0,0,1-1.479-.779,4.13,4.13,0,0,1-1.147-1.157,3.02,3.02,0,0,1-.456-1.7,3.87,3.87,0,0,1,.358-1.69,3.96,3.96,0,0,1,1-1.309,4.475,4.475,0,0,1,1.518-.85,6.007,6.007,0,0,1,1.936-.3,7.214,7.214,0,0,1,1.443.161,6.519,6.519,0,0,1,1.443.469,3.514,3.514,0,0,1,1.11.789,1.639,1.639,0,0,1,.443,1.148" transform="translate(-352.34 -40.408)" fill="#161615"/>
      <path id="Path_10" data-name="Path 10" d="M127.32,69.667H130.6V58.319h-10.08a13.819,13.819,0,0,1,6.8,11.348" transform="translate(-81.142 -39.264)" fill="#009289"/>
      <path id="Path_11" data-name="Path 11" d="M58.319,17.164c3.948-.005,9.129-.014,11.347-.025V0H58.319Z" transform="translate(-39.264 0.001)" fill="#009289"/>
      <path id="Path_12" data-name="Path 12" d="M5.1,64.64c-.029-.048-.056-.1-.078-.139A13.825,13.825,0,0,1,3.28,58.319H0V69.667H10.088A13.794,13.794,0,0,1,5.1,64.64" transform="translate(0 -39.264)" fill="#009289"/>
      <path id="Path_13" data-name="Path 13" d="M69.666,98.855c-3.925,0-9.092.011-11.347.018v17.14H69.666Z" transform="translate(-39.264 -66.556)" fill="#009289"/>
      <path id="Path_14" data-name="Path 14" d="M19.224,97.2H14.6a12.542,12.542,0,0,0,12.5,12.18h.429v-4.729h-.334a7.852,7.852,0,0,1-7.969-7.45" transform="translate(-9.828 -65.441)" fill="#dd1b1e"/>
      <path id="Path_15" data-name="Path 15" d="M105.458,29.073h4.67a12.542,12.542,0,0,0-12.5-12.179H97.2v4.745h.292a7.859,7.859,0,0,1,7.967,7.433" transform="translate(-65.441 -11.374)" fill="#dd1b1e"/>
      <path id="Path_16" data-name="Path 16" d="M101.5,42.435h2.219a6.121,6.121,0,0,0-6.226-5.694H97.2v5.13l.447.012a13.792,13.792,0,0,1,3.853.552" transform="translate(-65.441 -24.737)" fill="#dd1b1e"/>
      <path id="Path_17" data-name="Path 17" d="M36.364,97.2h-2.28a6.116,6.116,0,0,0,6.228,5.711h.334V97.765l-.447-.012a13.745,13.745,0,0,1-3.835-.553" transform="translate(-22.948 -65.441)" fill="#dd1b1e"/>
      <path id="Path_18" data-name="Path 18" d="M58.93,43.782a12.485,12.485,0,0,0-3.8-.59l-.66-.018c-.083.005-.294.008-.915.01-2.088.012-9.549.023-12,.025l-.7,0h-.211V36.741H40.3a6.267,6.267,0,0,0-5.7,3.534,5.654,5.654,0,0,0-.536,2.407c0,.042,0,.085,0,.127v.015a5.886,5.886,0,0,0,.065.727A6.181,6.181,0,0,0,40.3,48.621l14.685-.034a7.882,7.882,0,0,1,7.91,6.735,7.457,7.457,0,0,1,.06.8l0,.043c0,.033,0,.066,0,.1a7.369,7.369,0,0,1-.519,2.72,8.016,8.016,0,0,1-7.453,4.958H54.7v4.729h.43a12.552,12.552,0,0,0,12.5-12.33l0-.175V55.7c0-.116,0-.229,0-.343a12.511,12.511,0,0,0-8.7-11.571" transform="translate(-22.938 -24.737)" fill="#dd1b1e"/>
      <path id="Path_19" data-name="Path 19" d="M14.588,30.215A12.5,12.5,0,0,0,16.187,36l.008.018c.008.016.037.065.037.065a12.494,12.494,0,0,0,10.855,6.293l14.279-.013h.209v6.481h.292a6.323,6.323,0,0,0,5.392-2.966A5.718,5.718,0,0,0,48.1,42.9c0-.055,0-.11,0-.165a5.772,5.772,0,0,0-.067-.721,6.184,6.184,0,0,0-6.163-5.055L27.182,37a7.876,7.876,0,0,1-7.912-6.752,7.125,7.125,0,0,1-.058-.809V29.4c0-.026,0-.052,0-.077a7.391,7.391,0,0,1,.533-2.756,7.737,7.737,0,0,1,2.883-3.542,8.124,8.124,0,0,1,4.557-1.382h.334V16.894h-.429a12.537,12.537,0,0,0-12.5,12.257v.155l0,.567c0,.113,0,.227.006.341" transform="translate(-9.818 -11.374)" fill="#dd1b1e"/>
      <path id="Path_20" data-name="Path 20" d="M188.685,123.168c.115,0,.256,0,.422.012s.347.023.536.045.381.053.571.091a2.947,2.947,0,0,1,.513.148c.084.037.133.075.148.114a.2.2,0,0,1,0,.137l-.068.32a.364.364,0,0,1-.063.1c-.026.029-.078.036-.154.022-.251-.038-.546-.075-.884-.108a9.751,9.751,0,0,0-1.022-.053,1.906,1.906,0,0,0-1.049.252,1.637,1.637,0,0,0-.594.678,2.99,2.99,0,0,0-.262.994,11.9,11.9,0,0,0-.057,1.191,8.833,8.833,0,0,0,.068,1.108,2.866,2.866,0,0,0,.28.948,1.668,1.668,0,0,0,.6.656,1.879,1.879,0,0,0,1.015.245,9.864,9.864,0,0,0,1-.05c.32-.035.617-.072.891-.108.083-.016.138-.007.165.028a.445.445,0,0,1,.063.109l.057.3a.275.275,0,0,1,.006.148q-.017.058-.131.1a2.414,2.414,0,0,1-.491.148c-.19.039-.382.068-.576.091s-.379.04-.553.051-.32.017-.435.017a3.015,3.015,0,0,1-1.466-.313,2.377,2.377,0,0,1-.889-.84,3.338,3.338,0,0,1-.439-1.209,8.561,8.561,0,0,1-.115-1.427,9.714,9.714,0,0,1,.109-1.466,3.645,3.645,0,0,1,.422-1.261,2.371,2.371,0,0,1,.882-.883,2.907,2.907,0,0,1,1.5-.338" transform="translate(-125.076 -82.925)" fill="#161615"/>
      <path id="Path_21" data-name="Path 21" d="M207.808,132.081h0a6.508,6.508,0,0,0-.057-.915,1.613,1.613,0,0,0-.223-.649,1.032,1.032,0,0,0-.457-.387,1.863,1.863,0,0,0-.758-.132,1.679,1.679,0,0,0-.719.132,1.006,1.006,0,0,0-.434.392,1.734,1.734,0,0,0-.217.649,7.318,7.318,0,0,0,0,1.821,1.734,1.734,0,0,0,.217.649,1,1,0,0,0,.434.392,1.685,1.685,0,0,0,.719.131,1.922,1.922,0,0,0,.758-.126,1,1,0,0,0,.457-.379,1.628,1.628,0,0,0,.223-.649,6.638,6.638,0,0,0,.057-.929m.879-.074a9.633,9.633,0,0,1-.056,1.027,2.608,2.608,0,0,1-.291.958,1.8,1.8,0,0,1-.712.709,2.676,2.676,0,0,1-1.321.273,2.525,2.525,0,0,1-1.28-.273,1.79,1.79,0,0,1-.688-.7,2.54,2.54,0,0,1-.279-.959c-.034-.353-.051-.7-.051-1.032a6.584,6.584,0,0,1,.068-.9,2.617,2.617,0,0,1,.3-.913,1.906,1.906,0,0,1,.69-.7,2.361,2.361,0,0,1,1.24-.279,2.735,2.735,0,0,1,1.259.245,1.834,1.834,0,0,1,.722.638,2.251,2.251,0,0,1,.325.9,6.97,6.97,0,0,1,.074,1.016" transform="translate(-137.352 -86.994)" fill="#161615"/>
      <path id="Path_22" data-name="Path 22" d="M229.812,134.884h-.486a.173.173,0,0,1-.2-.194v-3.436a3.738,3.738,0,0,0-.039-.593.957.957,0,0,0-.143-.389.557.557,0,0,0-.272-.21,1.261,1.261,0,0,0-.432-.063,1.589,1.589,0,0,0-.449.073c-.163.051-.328.109-.495.177s-.325.141-.477.217-.277.142-.376.195a2,2,0,0,1,.018.229c0,.107.005.236.005.387v3.413a.173.173,0,0,1-.2.194h-.508c-.117,0-.174-.065-.174-.194l.011-3.515a1.812,1.812,0,0,0-.171-.867.728.728,0,0,0-.7-.308,1.59,1.59,0,0,0-.422.063,4.569,4.569,0,0,0-.473.159c-.165.064-.325.135-.486.212s-.3.149-.434.217v4.039a.172.172,0,0,1-.195.194h-.479q-.182,0-.182-.194v-5.169q0-.195.182-.195h.468c.137,0,.206.065.206.195v.4h.013l.382-.227a4.241,4.241,0,0,1,.457-.234,3.341,3.341,0,0,1,.509-.176,2.113,2.113,0,0,1,.537-.068,1.9,1.9,0,0,1,.978.21,1.173,1.173,0,0,1,.5.61,7.872,7.872,0,0,1,.966-.565,2.479,2.479,0,0,1,1.1-.255,2.123,2.123,0,0,1,.863.147,1.123,1.123,0,0,1,.5.418,1.623,1.623,0,0,1,.228.644,5.523,5.523,0,0,1,.058.833v3.436a.173.173,0,0,1-.2.194" transform="translate(-149.51 -86.995)" fill="#161615"/>
      <path id="Path_23" data-name="Path 23" d="M254.061,127.3h0a6.957,6.957,0,0,0-.063-1.014,1.948,1.948,0,0,0-.212-.675.9.9,0,0,0-.389-.372,1.4,1.4,0,0,0-.6-.114,5.563,5.563,0,0,0-.8.064,6.293,6.293,0,0,0-.871.189v3.81c.222.039.46.066.716.086s.506.029.75.029a2.73,2.73,0,0,0,.607-.063.873.873,0,0,0,.464-.275,1.457,1.457,0,0,0,.292-.607,4.323,4.323,0,0,0,.1-1.058m.913-.109a6.4,6.4,0,0,1-.108,1.249,2.317,2.317,0,0,1-.376.913,1.706,1.706,0,0,1-.719.565,2.885,2.885,0,0,1-1.136.194c-.175,0-.36-.007-.553-.018s-.386-.028-.576-.051-.369-.052-.537-.086a3.526,3.526,0,0,1-.444-.12.336.336,0,0,1-.235-.2.911.911,0,0,1-.04-.257v-7.2a.244.244,0,0,1,.04-.166.213.213,0,0,1,.152-.041h.473a.218.218,0,0,1,.163.045.25.25,0,0,1,.04.161v2.475l.011.023a5.329,5.329,0,0,1,.916-.268,3.953,3.953,0,0,1,.709-.074,2.646,2.646,0,0,1,1.1.2,1.59,1.59,0,0,1,.681.575,2.448,2.448,0,0,1,.343.9,6.462,6.462,0,0,1,.1,1.176" transform="translate(-168.485 -82.125)" fill="#161615"/>
      <path id="Path_24" data-name="Path 24" d="M269.674,130.854h0c0,.129-.061.194-.183.194h-.468q-.2,0-.2-.194v-5.169c0-.084.016-.137.051-.161a.282.282,0,0,1,.154-.033h.468c.122,0,.183.065.183.194Zm.068-6.847a.731.731,0,0,1-.085.366c-.058.1-.192.146-.406.146s-.358-.051-.41-.154a.765.765,0,0,1-.08-.358.589.589,0,0,1,.1-.353.452.452,0,0,1,.393-.139c.206,0,.339.044.4.131a.622.622,0,0,1,.091.361" transform="translate(-180.948 -83.159)" fill="#161615"/>
      <path id="Path_25" data-name="Path 25" d="M280.445,134.884h-.48a.172.172,0,0,1-.194-.194l.011-3.378a3.831,3.831,0,0,0-.046-.645.973.973,0,0,0-.154-.4.564.564,0,0,0-.286-.206,1.49,1.49,0,0,0-.439-.056,1.754,1.754,0,0,0-.48.079c-.183.054-.365.115-.548.183s-.354.138-.513.212-.282.131-.365.177v4.039c0,.129-.069.194-.206.194h-.468c-.121,0-.182-.065-.182-.194v-5.169c0-.13.061-.195.182-.195h.468a.279.279,0,0,1,.154.034c.035.024.052.077.052.161v.411l.034.01c.092-.061.209-.133.354-.217a4.429,4.429,0,0,1,.485-.24,4.619,4.619,0,0,1,.565-.194,2.357,2.357,0,0,1,.605-.078,2.031,2.031,0,0,1,.884.159,1.173,1.173,0,0,1,.5.438,1.691,1.691,0,0,1,.223.669,6.444,6.444,0,0,1,.052.845v3.366c0,.129-.069.194-.205.194" transform="translate(-185.887 -86.995)" fill="#161615"/>
      <path id="Path_26" data-name="Path 26" d="M295.311,130.854h0c0,.129-.062.194-.183.194h-.468c-.137,0-.2-.065-.2-.194v-5.169c0-.084.016-.137.05-.161a.285.285,0,0,1,.154-.033h.468c.121,0,.183.065.183.194Zm.068-6.847a.732.732,0,0,1-.085.366c-.058.1-.192.146-.406.146s-.358-.051-.41-.154a.765.765,0,0,1-.081-.358.589.589,0,0,1,.1-.353.452.452,0,0,1,.393-.139c.206,0,.338.044.4.131a.619.619,0,0,1,.091.361" transform="translate(-198.208 -83.159)" fill="#161615"/>
      <path id="Path_27" data-name="Path 27" d="M306.083,134.884h-.48a.172.172,0,0,1-.195-.194l.012-3.378a3.839,3.839,0,0,0-.045-.645.973.973,0,0,0-.154-.4.563.563,0,0,0-.286-.206,1.493,1.493,0,0,0-.44-.056,1.751,1.751,0,0,0-.479.079c-.183.054-.365.115-.548.183s-.354.138-.513.212-.282.131-.366.177v4.039q0,.194-.206.194h-.468c-.121,0-.182-.065-.182-.194v-5.169c0-.13.061-.195.182-.195h.468a.276.276,0,0,1,.154.034c.035.024.052.077.052.161v.411l.034.01c.092-.061.209-.133.354-.217a4.463,4.463,0,0,1,.485-.24,4.626,4.626,0,0,1,.565-.194,2.364,2.364,0,0,1,.605-.078,2.032,2.032,0,0,1,.884.159,1.174,1.174,0,0,1,.5.438,1.691,1.691,0,0,1,.223.669,6.5,6.5,0,0,1,.051.845v3.366c0,.129-.069.194-.2.194" transform="translate(-203.149 -86.995)" fill="#161615"/>
      <path id="Path_28" data-name="Path 28" d="M320.216,132.031h0a6.365,6.365,0,0,0,.068,1.016,1.984,1.984,0,0,0,.223.674.915.915,0,0,0,.393.376,1.392,1.392,0,0,0,.593.114,5.134,5.134,0,0,0,.765-.069,6.842,6.842,0,0,0,.879-.194v-3.8c-.22-.032-.459-.059-.713-.085a7.249,7.249,0,0,0-.748-.041,2.32,2.32,0,0,0-.576.068.947.947,0,0,0-.467.28,1.407,1.407,0,0,0-.308.605,4.073,4.073,0,0,0-.108,1.055m1.432-2.818c.174,0,.357.007.546.023s.376.033.558.056.356.053.524.086.319.072.456.108a.322.322,0,0,1,.238.194.825.825,0,0,1,.046.262v4.965a4.8,4.8,0,0,1-.068.84,1.437,1.437,0,0,1-.3.661,1.464,1.464,0,0,1-.66.434,3.532,3.532,0,0,1-1.161.154c-.144,0-.3,0-.466-.012s-.333-.021-.5-.038-.323-.047-.477-.081a2.371,2.371,0,0,1-.417-.131c-.076-.032-.12-.067-.131-.108a.22.22,0,0,1,.006-.131l.046-.252a.147.147,0,0,1,.091-.124.39.39,0,0,1,.194,0q.365.054.81.079c.3.016.564.023.8.023a2.859,2.859,0,0,0,.656-.063.957.957,0,0,0,.411-.2.726.726,0,0,0,.217-.348,1.814,1.814,0,0,0,.062-.507v-.457a5.671,5.671,0,0,1-.919.268,3.72,3.72,0,0,1-.7.075,2.592,2.592,0,0,1-1.091-.2,1.615,1.615,0,0,1-.679-.577,2.4,2.4,0,0,1-.348-.9,6.531,6.531,0,0,1-.1-1.176,6.134,6.134,0,0,1,.114-1.239,2.365,2.365,0,0,1,.387-.918,1.712,1.712,0,0,1,.723-.57,2.842,2.842,0,0,1,1.122-.194" transform="translate(-214.976 -86.995)" fill="#161615"/>
      <path id="Path_29" data-name="Path 29" d="M350.65,133.287a1.633,1.633,0,0,1-.177.8,1.458,1.458,0,0,1-.479.52,2.055,2.055,0,0,1-.685.286,3.643,3.643,0,0,1-.794.085q-.216,0-.456-.01c-.159-.009-.317-.023-.473-.045s-.3-.051-.445-.084a2.234,2.234,0,0,1-.371-.119.2.2,0,0,1-.126-.236l.045-.236c.016-.075.044-.12.086-.136a.4.4,0,0,1,.165-.011c.114.016.246.029.393.045s.3.028.446.04.29.021.422.028.249.012.348.012a1.618,1.618,0,0,0,.918-.2.727.727,0,0,0,.28-.636,1.585,1.585,0,0,0-.045-.417.512.512,0,0,0-.171-.269.9.9,0,0,0-.342-.16c-.145-.037-.331-.075-.56-.114a7.352,7.352,0,0,1-.747-.149,2.216,2.216,0,0,1-.633-.262,1.347,1.347,0,0,1-.44-.446,1.39,1.39,0,0,1-.165-.721,1.462,1.462,0,0,1,.531-1.219,2.294,2.294,0,0,1,1.455-.416q.172,0,.388.01c.144.009.295.021.451.04a4.45,4.45,0,0,1,.463.081,2.934,2.934,0,0,1,.411.119.188.188,0,0,1,.114.24l-.045.275a.148.148,0,0,1-.1.114.533.533,0,0,1-.2.012l-.742-.075a7.4,7.4,0,0,0-.753-.041,1.39,1.39,0,0,0-.867.195.8.8,0,0,0-.228.64.849.849,0,0,0,.057.341.476.476,0,0,0,.189.206,1.265,1.265,0,0,0,.361.131c.153.034.344.071.573.109.252.037.5.086.733.141a1.869,1.869,0,0,1,.624.27,1.315,1.315,0,0,1,.43.479,1.655,1.655,0,0,1,.16.787" transform="translate(-233.383 -86.995)" fill="#161615"/>
      <path id="Path_30" data-name="Path 30" d="M366.036,134.713a2.674,2.674,0,0,1-.8.206,8.207,8.207,0,0,1-.919.056,2.688,2.688,0,0,1-1.2-.228,1.7,1.7,0,0,1-.7-.627,2.373,2.373,0,0,1-.32-.926,8.036,8.036,0,0,1-.074-1.128,7.4,7.4,0,0,1,.074-1.062,2.362,2.362,0,0,1,.32-.913,1.773,1.773,0,0,1,.7-.639,2.571,2.571,0,0,1,1.2-.239q.171,0,.4.01c.152.009.306.021.463.04a4.555,4.555,0,0,1,.462.081,2.1,2.1,0,0,1,.411.131.154.154,0,0,1,.108.1.342.342,0,0,1,.005.139l-.046.262a.144.144,0,0,1-.108.114.5.5,0,0,1-.188.012q-.355-.037-.782-.075c-.285-.026-.529-.041-.735-.041a1.727,1.727,0,0,0-.651.109.9.9,0,0,0-.416.348,1.715,1.715,0,0,0-.223.633,5.867,5.867,0,0,0-.068.976,6.559,6.559,0,0,0,.068,1.039,1.726,1.726,0,0,0,.229.656.877.877,0,0,0,.422.348,1.762,1.762,0,0,0,.639.1c.091,0,.2-.006.337-.012s.27-.017.41-.028l.428-.035c.144-.01.274-.024.388-.04a.376.376,0,0,1,.165.012c.041.016.071.061.085.137l.046.24a.2.2,0,0,1-.125.24" transform="translate(-243.736 -86.995)" fill="#161615"/>
      <path id="Path_31" data-name="Path 31" d="M378.718,130.854h0c0,.129-.061.194-.183.194h-.468q-.205,0-.205-.194v-5.169c0-.084.017-.137.051-.161a.287.287,0,0,1,.155-.033h.468c.122,0,.183.065.183.194Zm.068-6.847a.732.732,0,0,1-.085.366c-.058.1-.192.146-.406.146s-.357-.051-.41-.154a.765.765,0,0,1-.08-.358.594.594,0,0,1,.1-.353.452.452,0,0,1,.393-.139c.206,0,.339.044.4.131a.619.619,0,0,1,.092.361" transform="translate(-254.364 -83.159)" fill="#161615"/>
      <path id="Path_32" data-name="Path 32" d="M388.592,131.665h0a3.559,3.559,0,0,0-.051-.6,1.5,1.5,0,0,0-.2-.542,1.112,1.112,0,0,0-.422-.389,1.546,1.546,0,0,0-.731-.149,1.489,1.489,0,0,0-.633.121,1.064,1.064,0,0,0-.417.336,1.507,1.507,0,0,0-.239.525,3.556,3.556,0,0,0-.1.7Zm.924.069a.929.929,0,0,1-.085.464.427.427,0,0,1-.418.187H385.8a4.38,4.38,0,0,0,.091.857,1.255,1.255,0,0,0,.263.554.975.975,0,0,0,.462.3,2.384,2.384,0,0,0,.679.085c.115,0,.243-.007.389-.017l.433-.035c.144-.01.283-.024.417-.04s.249-.03.348-.046a.417.417,0,0,1,.177.012c.042.016.07.061.085.137l.046.255a.189.189,0,0,1-.125.231,2.5,2.5,0,0,1-.388.127c-.153.039-.312.072-.48.1s-.335.05-.5.063-.32.025-.456.025a2.674,2.674,0,0,1-1.25-.246,1.746,1.746,0,0,1-.7-.644,2.432,2.432,0,0,1-.314-.919,7.415,7.415,0,0,1-.075-1.066,6.949,6.949,0,0,1,.068-.919,2.737,2.737,0,0,1,.309-.948,2.034,2.034,0,0,1,.7-.737,2.263,2.263,0,0,1,1.243-.3,2.7,2.7,0,0,1,1.176.217,1.74,1.74,0,0,1,.69.57,2.086,2.086,0,0,1,.332.81,6.807,6.807,0,0,1,.107.924" transform="translate(-259.137 -86.995)" fill="#161615"/>
      <path id="Path_33" data-name="Path 33" d="M406.674,134.884h-.479a.172.172,0,0,1-.194-.194l.011-3.378a3.946,3.946,0,0,0-.045-.645.983.983,0,0,0-.155-.4.562.562,0,0,0-.286-.206,1.486,1.486,0,0,0-.439-.056,1.754,1.754,0,0,0-.48.079c-.183.054-.365.115-.547.183s-.354.138-.513.212-.282.131-.366.177v4.039c0,.129-.068.194-.206.194h-.467c-.122,0-.182-.065-.182-.194v-5.169c0-.13.06-.195.182-.195h.467a.279.279,0,0,1,.154.034c.035.024.052.077.052.161v.411l.034.01c.092-.061.209-.133.355-.217a4.432,4.432,0,0,1,.485-.24,4.632,4.632,0,0,1,.565-.194,2.357,2.357,0,0,1,.605-.078,2.03,2.03,0,0,1,.884.159,1.168,1.168,0,0,1,.5.438,1.692,1.692,0,0,1,.224.669,6.56,6.56,0,0,1,.052.845v3.366c0,.129-.069.194-.206.194" transform="translate(-270.874 -86.995)" fill="#161615"/>
      <path id="Path_34" data-name="Path 34" d="M423.806,134.713a2.666,2.666,0,0,1-.805.206,8.194,8.194,0,0,1-.918.056,2.685,2.685,0,0,1-1.2-.228,1.7,1.7,0,0,1-.7-.627,2.368,2.368,0,0,1-.319-.926,8.043,8.043,0,0,1-.074-1.128,7.4,7.4,0,0,1,.074-1.062,2.356,2.356,0,0,1,.319-.913,1.772,1.772,0,0,1,.7-.639,2.568,2.568,0,0,1,1.2-.239c.113,0,.247,0,.4.01s.306.021.463.04a4.574,4.574,0,0,1,.462.081,2.1,2.1,0,0,1,.411.131.154.154,0,0,1,.108.1.344.344,0,0,1,.006.139l-.046.262a.144.144,0,0,1-.109.114.494.494,0,0,1-.187.012q-.355-.037-.782-.075c-.286-.026-.531-.041-.736-.041a1.722,1.722,0,0,0-.651.109.894.894,0,0,0-.417.348,1.71,1.71,0,0,0-.223.633,5.822,5.822,0,0,0-.068.976,6.509,6.509,0,0,0,.068,1.039,1.719,1.719,0,0,0,.228.656.879.879,0,0,0,.422.348,1.766,1.766,0,0,0,.639.1c.091,0,.2-.006.337-.012s.269-.017.409-.028l.429-.035c.145-.01.275-.024.388-.04a.373.373,0,0,1,.165.012c.042.016.071.061.086.137l.046.24a.2.2,0,0,1-.125.24" transform="translate(-282.631 -86.995)" fill="#161615"/>
      <path id="Path_35" data-name="Path 35" d="M438.469,131.665h0a3.553,3.553,0,0,0-.052-.6,1.486,1.486,0,0,0-.2-.542,1.115,1.115,0,0,0-.423-.389,1.547,1.547,0,0,0-.73-.149,1.487,1.487,0,0,0-.633.121,1.061,1.061,0,0,0-.418.336,1.519,1.519,0,0,0-.24.525,3.6,3.6,0,0,0-.1.7Zm.924.069a.928.928,0,0,1-.085.464.426.426,0,0,1-.417.187h-3.218a4.281,4.281,0,0,0,.091.857,1.256,1.256,0,0,0,.262.554.98.98,0,0,0,.463.3,2.383,2.383,0,0,0,.679.085c.114,0,.243-.007.388-.017l.434-.035c.144-.01.283-.024.417-.04s.249-.03.348-.046a.415.415,0,0,1,.176.012c.042.016.071.061.086.137l.045.255a.188.188,0,0,1-.125.231,2.461,2.461,0,0,1-.389.127c-.152.039-.312.072-.479.1s-.335.05-.5.063-.32.025-.457.025a2.675,2.675,0,0,1-1.25-.246,1.746,1.746,0,0,1-.7-.644,2.421,2.421,0,0,1-.314-.919,7.468,7.468,0,0,1-.074-1.066,6.9,6.9,0,0,1,.068-.919,2.743,2.743,0,0,1,.308-.948,2.043,2.043,0,0,1,.7-.737,2.264,2.264,0,0,1,1.244-.3,2.7,2.7,0,0,1,1.176.217,1.739,1.739,0,0,1,.69.57,2.087,2.087,0,0,1,.332.81,6.851,6.851,0,0,1,.108.924" transform="translate(-292.718 -86.995)" fill="#161615"/>
      <path id="Path_36" data-name="Path 36" d="M464.908,124.569h0a.737.737,0,0,0-.24-.565.819.819,0,0,0-.581-.224.729.729,0,0,0-.359.086.718.718,0,0,0-.246.217,1,1,0,0,0-.137.285,1.03,1.03,0,0,0-.046.292,1.388,1.388,0,0,0,.125.552,3.674,3.674,0,0,0,.355.623,3.965,3.965,0,0,0,.8-.542.932.932,0,0,0,.325-.725m.7,4.93h0q-.284-.273-.593-.623c-.2-.231-.4-.467-.6-.707s-.375-.477-.542-.713-.313-.444-.435-.628a3.669,3.669,0,0,0-1.061.845,1.634,1.634,0,0,0-.4,1.073,1.536,1.536,0,0,0,.126.656,1.1,1.1,0,0,0,.348.434,1.532,1.532,0,0,0,.519.247,2.465,2.465,0,0,0,.628.079,3.183,3.183,0,0,0,.987-.165,4.4,4.4,0,0,0,1.021-.5m2.591,1.723a.288.288,0,0,1-.108.086.179.179,0,0,1-.154-.017,4.384,4.384,0,0,1-.4-.218c-.152-.09-.308-.194-.468-.308s-.32-.235-.479-.358-.3-.25-.434-.371a4.945,4.945,0,0,1-1.233.616,4.013,4.013,0,0,1-1.267.217,3.678,3.678,0,0,1-.952-.12,2.211,2.211,0,0,1-.788-.376,1.885,1.885,0,0,1-.536-.651,2.088,2.088,0,0,1-.2-.953,2.266,2.266,0,0,1,.5-1.426,4.49,4.49,0,0,1,1.364-1.13,3.812,3.812,0,0,1-.429-.8,2.017,2.017,0,0,1-.154-.691,1.8,1.8,0,0,1,.114-.644,1.51,1.51,0,0,1,.839-.878,1.71,1.71,0,0,1,.69-.133,1.947,1.947,0,0,1,.656.108,1.441,1.441,0,0,1,.845.777,1.4,1.4,0,0,1,.12.578,1.522,1.522,0,0,1-.417,1.082,5.108,5.108,0,0,1-1.124.868q.434.661.965,1.319a15.347,15.347,0,0,0,1.09,1.214,4.969,4.969,0,0,0,.879-1.2,4.575,4.575,0,0,0,.48-1.546.225.225,0,0,1,.057-.119.222.222,0,0,1,.136-.03l.309.012c.075.008.123.031.143.074a.394.394,0,0,1,.028.154,4.241,4.241,0,0,1-.182.953,5.791,5.791,0,0,1-.366.9,6.574,6.574,0,0,1-.462.771,3.988,3.988,0,0,1-.485.575c.236.214.489.42.759.623a7.1,7.1,0,0,0,.794.518.268.268,0,0,1,.085.08c.011.023,0,.065-.028.126Z" transform="translate(-310.496 -82.854)" fill="#161615"/>
      <path id="Path_37" data-name="Path 37" d="M499.247,134.713a2.663,2.663,0,0,1-.805.206,8.2,8.2,0,0,1-.918.056,2.685,2.685,0,0,1-1.2-.228,1.7,1.7,0,0,1-.7-.627,2.357,2.357,0,0,1-.319-.926,7.976,7.976,0,0,1-.075-1.128A7.342,7.342,0,0,1,495.3,131a2.345,2.345,0,0,1,.319-.913,1.772,1.772,0,0,1,.7-.639,2.569,2.569,0,0,1,1.2-.239c.114,0,.246,0,.4.01s.306.021.463.04a4.576,4.576,0,0,1,.462.081,2.087,2.087,0,0,1,.411.131.153.153,0,0,1,.108.1.337.337,0,0,1,.005.139l-.045.262a.145.145,0,0,1-.109.114.5.5,0,0,1-.188.012q-.355-.037-.782-.075c-.285-.026-.53-.041-.736-.041a1.722,1.722,0,0,0-.651.109.894.894,0,0,0-.417.348,1.7,1.7,0,0,0-.223.633,5.859,5.859,0,0,0-.068.976,6.549,6.549,0,0,0,.068,1.039,1.725,1.725,0,0,0,.228.656.879.879,0,0,0,.422.348,1.766,1.766,0,0,0,.639.1c.091,0,.2-.006.337-.012s.27-.017.41-.028l.428-.035c.145-.01.274-.024.388-.04a.375.375,0,0,1,.165.012c.042.016.071.061.086.137l.045.24a.2.2,0,0,1-.125.24" transform="translate(-333.423 -86.995)" fill="#161615"/>
      <path id="Path_38" data-name="Path 38" d="M513.842,132.2h-1.678a1.325,1.325,0,0,0-.834.24,1.118,1.118,0,0,0-.307.923.871.871,0,0,0,.188.651,1.047,1.047,0,0,0,.69.172,2.167,2.167,0,0,0,.474-.058,3.705,3.705,0,0,0,.52-.154c.175-.065.343-.135.507-.21s.311-.153.44-.23Zm-.013,2.066a8.61,8.61,0,0,1-.941.479,2.967,2.967,0,0,1-1.2.228,1.52,1.52,0,0,1-1.187-.4,1.722,1.722,0,0,1-.354-1.176,1.919,1.919,0,0,1,.49-1.443,2.3,2.3,0,0,1,1.632-.474h1.576v-.388a1.079,1.079,0,0,0-.292-.868,1.7,1.7,0,0,0-1.044-.24c-.107,0-.227,0-.359.007s-.272.011-.417.023l-.433.033c-.144.013-.278.025-.4.041s-.205-.012-.228-.1l-.068-.3a.154.154,0,0,1,.018-.138.42.42,0,0,1,.165-.114,3.25,3.25,0,0,1,.41-.1c.16-.03.327-.055.5-.074s.348-.031.519-.04.325-.01.462-.01a3.3,3.3,0,0,1,1.092.147,1.4,1.4,0,0,1,.621.411,1.294,1.294,0,0,1,.271.64,5.5,5.5,0,0,1,.058.833v2.523a1.5,1.5,0,0,0,.018.263.277.277,0,0,0,.057.136.222.222,0,0,0,.12.063,1.749,1.749,0,0,0,.217.028c.13.009.194.058.194.149v.285a.188.188,0,0,1-.046.131.316.316,0,0,1-.183.075,2.452,2.452,0,0,1-.4.033.966.966,0,0,1-.6-.149.774.774,0,0,1-.249-.513Z" transform="translate(-343.464 -86.994)" fill="#161615"/>
      <path id="Path_39" data-name="Path 39" d="M532.166,130.21c-.153.03-.32.07-.5.121s-.359.1-.531.147-.328.1-.473.148a2.226,2.226,0,0,0-.32.132v4.028a.173.173,0,0,1-.2.194h-.5q-.185,0-.185-.194v-5.169q0-.195.185-.195h.487q.207,0,.207.195v.466l.024.023a2.413,2.413,0,0,1,.312-.2c.133-.072.28-.143.44-.217s.323-.136.49-.194a4.673,4.673,0,0,1,.469-.131c.068-.014.113-.012.136.007a.246.246,0,0,1,.058.131l.046.48c.022.136-.028.211-.149.227" transform="translate(-356.47 -87.091)" fill="#161615"/>
      <path id="Path_40" data-name="Path 40" d="M543.53,131.665h0a3.591,3.591,0,0,0-.051-.6,1.5,1.5,0,0,0-.2-.542,1.11,1.11,0,0,0-.423-.389,1.545,1.545,0,0,0-.73-.149,1.489,1.489,0,0,0-.633.121,1.067,1.067,0,0,0-.418.336,1.532,1.532,0,0,0-.239.525,3.526,3.526,0,0,0-.1.7Zm.924.069a.934.934,0,0,1-.085.464.427.427,0,0,1-.417.187h-3.218a4.306,4.306,0,0,0,.091.857,1.254,1.254,0,0,0,.262.554.977.977,0,0,0,.463.3,2.384,2.384,0,0,0,.679.085c.114,0,.243-.007.388-.017l.434-.035c.144-.01.283-.024.417-.04s.249-.03.348-.046a.416.416,0,0,1,.176.012c.042.016.07.061.086.137l.046.255a.189.189,0,0,1-.125.231,2.476,2.476,0,0,1-.388.127c-.152.039-.312.072-.48.1s-.334.05-.5.063-.319.025-.456.025a2.674,2.674,0,0,1-1.25-.246,1.75,1.75,0,0,1-.7-.644,2.426,2.426,0,0,1-.314-.919,7.469,7.469,0,0,1-.074-1.066,6.94,6.94,0,0,1,.068-.919,2.741,2.741,0,0,1,.308-.948,2.045,2.045,0,0,1,.7-.737,2.267,2.267,0,0,1,1.244-.3,2.7,2.7,0,0,1,1.176.217,1.74,1.74,0,0,1,.69.57,2.091,2.091,0,0,1,.332.81,6.866,6.866,0,0,1,.108.924" transform="translate(-363.452 -86.995)" fill="#161615"/>
    </g>
  </g>
  <g id="burger_menu_hta" data-name="burger menu hta" transform="translate(263 64)">
    <line id="Line_1482" data-name="Line 1482" x2="32" fill="none" stroke="#212121" stroke-width="1.5"/>
    <line id="Line_1483" data-name="Line 1483" x2="26" transform="translate(6 9)" fill="none" stroke="#212121" stroke-width="1.5"/>
    <line id="Line_1484" data-name="Line 1484" x2="32" transform="translate(0 18)" fill="none" stroke="#212121" stroke-width="1.5"/>
  </g>
  <line id="Line_1487" data-name="Line 1487" x1="700" transform="translate(964.5 88.5)" fill="none" stroke="#212121" stroke-width="1"/>
  <text id="Σύνδεση" transform="translate(1825 65)" fill="#dd1b1e" font-size="16" font-family="Manrope" font-weight="600"><tspan x="8" y="17">Σύνδεση</tspan></text>
  <g id="cart_icon_hta" data-name="cart icon hta" transform="translate(1758.5 63)">
    <rect id="Rectangle_5" data-name="Rectangle 5" width="26" height="26" rx="2" fill="none" stroke="#212121" stroke-linecap="round" stroke-width="1.5"/>
    <path id="Path_23442" data-name="Path 23442" d="M16.918,6.02a5.268,5.268,0,0,1-5.5,5,5.268,5.268,0,0,1-5.5-5" transform="translate(2.082 1.098)" fill="none" stroke="#212121" stroke-linecap="round" stroke-width="1.5"/>
  </g>
  <g id="login_icon_hta" data-name="login icon hta" transform="translate(1798.803 62.5)">
    <circle id="Ellipse_122" data-name="Ellipse 122" cx="5" cy="5" r="5" transform="translate(8.691 4.42)" fill="none" stroke="#dd1b1e" stroke-linecap="round" stroke-linejoin="round" stroke-width="1.5"/>
    <path id="Path_5611" data-name="Path 5611" d="M1196.569,71.377a11.031,11.031,0,0,0-17,0" transform="translate(-1174.568 -48.563)" fill="none" stroke="#dd1b1e" stroke-linecap="round" stroke-linejoin="round" stroke-width="1.5"/>
    <circle id="Ellipse_123" data-name="Ellipse 123" cx="13.5" cy="13.5" r="13.5" fill="none" stroke="#dd1b1e" stroke-linecap="round" stroke-linejoin="round" stroke-width="1.5"/>
  </g>
  <g id="icon_heart" transform="translate(1713.496 63)">
    <g id="Group_3608" data-name="Group 3608">
      <path id="Path_23441" data-name="Path 23441" d="M16.249,26.75c-.574,0-1.64,0-7.536-5.588-2.792-2.648-5.371-5.33-5.4-5.356a8.842,8.842,0,0,1,.012-12.47,8.794,8.794,0,0,1,12.456,0l.464.464.464-.464A8.808,8.808,0,0,1,31.75,9.577a8.789,8.789,0,0,1-2.579,6.241c-.014.015-2.594,2.7-5.386,5.343C17.888,26.75,16.823,26.75,16.249,26.75Z" transform="translate(-0.75 -0.75)" fill="none" stroke="#212121" stroke-linecap="round" stroke-linejoin="round" stroke-width="1.5"/>
    </g>
  </g>
  <g id="icon_search" transform="translate(1673.49 63)">
    <ellipse id="Ellipse_1" data-name="Ellipse 1" cx="12.504" cy="12.504" rx="12.504" ry="12.504" fill="none" stroke="#212121" stroke-linecap="round" stroke-linejoin="round" stroke-width="1.5"/>
    <line id="Line_1" data-name="Line 1" x2="4.445" y2="4.692" transform="translate(21.557 21.308)" fill="none" stroke="#212121" stroke-linecap="round" stroke-linejoin="round" stroke-width="1.5"/>
  </g>
  <circle id="Ellipse_1880" data-name="Ellipse 1880" cx="10" cy="10" r="10" transform="translate(1774.5 53)" fill="#dd1b1e"/>
  <text id="_2" data-name="2" transform="translate(1774.5 54)" fill="#fff" font-size="12" font-family="Manrope"><tspan x="6" y="13">2</tspan></text>
</svg>
