<svg xmlns="http://www.w3.org/2000/svg" width="151.199" height="151.201" viewBox="0 0 151.199 151.201">
  <g id="Group_4621" data-name="Group 4621" transform="translate(-1836 -6231.999)">
    <path id="Path_10" data-name="Path 10" d="M141.312,93.012h10.024V58.319H120.519a42.248,42.248,0,0,1,20.793,34.693" transform="translate(1835.863 6231.939)" fill="#fff"/>
    <path id="Path_11" data-name="Path 11" d="M58.319,52.476c12.071-.016,27.908-.042,34.69-.077V0H58.319Z" transform="translate(1835.937 6232)" fill="#fff"/>
    <path id="Path_12" data-name="Path 12" d="M15.59,77.643c-.088-.146-.17-.291-.238-.424a42.265,42.265,0,0,1-5.323-18.9H0V93.012H30.842A42.171,42.171,0,0,1,15.59,77.643" transform="translate(1836 6231.939)" fill="#fff"/>
    <path id="Path_13" data-name="Path 13" d="M93.009,98.855c-12,.012-27.8.034-34.69.056v52.4h34.69Z" transform="translate(1835.937 6231.89)" fill="#fff"/>
    <path id="Path_14" data-name="Path 14" d="M28.741,97.2H14.6a38.344,38.344,0,0,0,38.214,37.237h1.313V119.977H53.1c-13.185,0-23.978-10.158-24.362-22.778" transform="translate(1835.982 6231.893)" fill="#fff"/>
    <path id="Path_15" data-name="Path 15" d="M122.45,54.128h14.277A38.343,38.343,0,0,0,98.513,16.894H97.2V31.4h.893c13.149,0,23.941,10.137,24.358,22.726" transform="translate(1835.891 6231.984)" fill="#fff"/>
    <path id="Path_16" data-name="Path 16" d="M110.344,54.15h6.782c-.415-9.654-8.819-17.409-19.035-17.409H97.2V52.425l1.366.036a42.164,42.164,0,0,1,11.779,1.689" transform="translate(1835.891 6231.961)" fill="#fff"/>
    <path id="Path_17" data-name="Path 17" d="M41.055,97.2H34.084c.387,9.685,8.79,17.461,19.041,17.461h1.021V98.929l-1.366-.038A42.024,42.024,0,0,1,41.055,97.2" transform="translate(1835.963 6231.893)" fill="#fff"/>
    <path id="Path_18" data-name="Path 18" d="M110.071,58.267a38.168,38.168,0,0,0-11.629-1.8l-2.018-.054c-.255.016-.9.023-2.8.03-6.385.038-29.192.07-36.688.078l-2.149.006-.644,0V36.741H53.125a19.159,19.159,0,0,0-17.416,10.8A17.286,17.286,0,0,0,34.07,54.9c0,.129,0,.26.006.388v.045a18,18,0,0,0,.2,2.224c1.367,8.836,9.471,15.5,18.85,15.5l44.9-.1c12.282,0,22.68,8.853,24.182,20.59A22.793,22.793,0,0,1,122.387,96l0,.133c0,.1,0,.2,0,.3a22.528,22.528,0,0,1-1.587,8.315,24.506,24.506,0,0,1-22.786,15.158h-.894v14.459h1.314a38.375,38.375,0,0,0,38.223-37.694l.007-.534V94.692c0-.354-.007-.7-.014-1.05a38.248,38.248,0,0,0-26.587-35.376" transform="translate(1835.964 6231.961)" fill="#fff"/>
    <path id="Path_19" data-name="Path 19" d="M14.6,57.619a38.217,38.217,0,0,0,4.89,17.689l.025.055c.024.049.114.2.114.2A38.2,38.2,0,0,0,52.812,94.8l43.654-.039.64,0v19.813H98a19.33,19.33,0,0,0,16.486-9.068,17.48,17.48,0,0,0,2.567-9.088c0-.168,0-.337-.007-.5a17.644,17.644,0,0,0-.2-2.206c-1.388-8.81-9.49-15.453-18.842-15.453l-44.9.1c-12.314,0-22.713-8.874-24.189-20.641a21.783,21.783,0,0,1-.177-2.473l0-.122c0-.079-.006-.16-.006-.237a22.6,22.6,0,0,1,1.629-8.427,23.654,23.654,0,0,1,8.814-10.828A24.838,24.838,0,0,1,53.1,31.4h1.021V16.894H52.812A38.327,38.327,0,0,0,14.593,54.367l0,.473-.014,1.734c0,.346.007.7.017,1.044" transform="translate(1835.981 6231.984)" fill="#fff"/>
  </g>
</svg>
